Coordinates
version=1
nRows=18
nColumns=22
inDegrees=yes

Units are S.I. units (second, meters, Newtons, ...)
If the header above contains a line with 'inDegrees', this indicates whether rotational values are in degrees (yes) or radians (no).

endheader
time	pelvis_tilt	pelvis_list	pelvis_rotation	pelvis_tx	pelvis_ty	pelvis_tz	hip_flexion_r	hip_adduction_r	hip_rotation_r	knee_angle_r	ankle_angle_r	subtalar_angle_r	hip_flexion_l	hip_adduction_l	hip_rotation_l	knee_angle_l	ankle_angle_l	subtalar_angle_l	lumbar_extension	lumbar_bending	lumbar_rotation
      4.19000000	     -4.35755253	     -7.97429695	     61.34801604	      0.68668824	      0.95443109	     -0.01019979	     38.85292218	      0.59778285	     -0.66079491	    -32.51914145	      6.80785883	     -4.72916111	      4.78160764	      7.17926421	      8.61399736	    -41.55465194	      8.29416433	      8.05948995	      2.04344522	      2.75002441	      1.33100300
      4.20000000	     -4.38808803	     -8.22489591	     61.52495731	      0.69124641	      0.95523261	     -0.01627711	     38.67665724	      0.71241335	     -0.79159124	    -32.68006829	      7.30208130	     -5.29654422	      5.63754853	      6.88464349	      8.24544337	    -43.00401753	      6.93096706	      9.28670141	      2.33160410	      2.94178102	      1.28499929
      4.21000000	     -4.40029400	     -8.48928337	     61.70871650	      0.69563964	      0.95599468	     -0.02210696	     38.50011959	      0.84666795	     -0.92050862	    -32.80175715	      7.75311722	     -5.80050444	      6.61212106	      6.54183064	      7.79557417	    -44.58321474	      5.73834280	     10.58453884	      2.59724245	      3.15081931	      1.24689672
      4.22000000	     -4.39346800	     -8.75221796	     61.89918285	      0.69991789	      0.95674981	     -0.02766811	     38.29931011	      1.00744946	     -1.01098623	    -32.86606468	      8.17677835	     -6.27863054	      7.67705412	      6.14931495	      7.27219017	    -46.25687591	      4.73237888	     11.99453879	      2.82608313	      3.36283401	      1.19596372
      4.23000000	     -4.33247930	     -9.04046013	     62.10587500	      0.70410529	      0.95746128	     -0.03295646	     38.08858955	      1.22241333	     -1.13586584	    -32.88496873	      8.55385369	     -6.71534911	      8.84098700	      5.64300420	      6.65865947	    -48.01909461	      3.97150891	     13.35287419	      3.02998395	      3.62455613	      1.16497916
      4.24000000	     -4.21227904	     -9.34098973	     62.33127470	      0.70823907	      0.95815603	     -0.03798014	     37.85142460	      1.49326996	     -1.28869569	    -32.85451613	      8.88878680	     -7.14012787	     10.07044198	      5.01580627	      5.96829195	    -49.82333083	      3.47269450	     14.57078643	      3.19757804	      3.92897407	      1.15855561
      4.25000000	     -4.03783842	     -9.63865198	     62.56965763	      0.71236670	      0.95887468	     -0.04273226	     37.56278440	      1.82755075	     -1.41152049	    -32.74877250	      9.18162294	     -7.57402921	     11.33070640	      4.27346357	      5.21534877	    -51.61239898	      3.22850286	     15.51555852	      3.31916392	      4.26076865	      1.13271020
      4.26000000	     -3.80833404	     -9.92978627	     62.81812819	      0.71648589	      0.95960852	     -0.04724467	     37.23595404	      2.21271780	     -1.55336144	    -32.59833532	      9.43702221	     -8.01054455	     12.59513461	      3.42240205	      4.42903135	    -53.33838257	      3.26840775	     16.00416273	      3.39529614	      4.61921530	      1.14474470
      4.27000000	     -3.53377461	    -10.19430167	     63.05459827	      0.72061825	      0.96038698	     -0.05152606	     36.86065791	      2.64465377	     -1.68614703	    -32.40702541	      9.64614056	     -8.39912061	     13.82272408	      2.48949452	      3.62356585	    -54.94536967	      3.59383482	     15.96453929	      3.41105398	      4.98772962	      1.20597924
      4.28000000	     -3.26568799	    -10.45499823	     63.30320593	      0.72468775	      0.96114710	     -0.05561419	     36.48450031	      3.07278481	     -1.80712289	    -32.18281936	      9.83382651	     -8.95256573	     15.04758883	      1.54498333	      2.86967566	    -56.39575245	      4.16162866	     15.34975152	      3.42592803	      5.32556779	      1.27323006
      4.29000000	     -2.99216429	    -10.67053306	     63.51422778	      0.72873230	      0.96195741	     -0.05952870	     36.06533762	      3.51091121	     -1.88995606	    -31.92761878	      9.99655914	     -9.45975640	     16.19422288	      0.60571121	      2.14032553	    -57.64359499	      4.97894830	     14.18445009	      3.38511221	      5.63745876	      1.39380097
      4.30000000	     -2.73929788	    -10.84973659	     63.69032902	      0.73269623	      0.96279170	     -0.06329471	     35.63285452	      3.92991198	     -1.94433112	    -31.66276523	     10.11675647	     -9.94704715	     17.27543882	     -0.28393731	      1.45831241	    -58.67058120	      5.98082613	     12.64424851	      3.31368966	      5.90649503	      1.56041860
      4.31000000	     -2.51630256	    -10.99444162	     63.82806843	      0.73656261	      0.96363846	     -0.06693276	     35.19484552	      4.31956577	     -1.97282810	    -31.39631077	     10.21439327	    -10.40174018	     18.28850383	     -1.09757721	      0.83308211	    -59.46696580	      7.09926627	     10.92138576	      3.21968396	      6.12818059	      1.77564364
      4.32000000	     -2.33070063	    -11.10824116	     63.92393847	      0.74031039	      0.96449172	     -0.07047446	     34.75738891	      4.66918900	     -1.98326560	    -31.13101172	     10.29846071	    -10.80502190	     19.23037159	     -1.82162163	      0.25274129	    -60.02258197	      8.27359862	      9.19271122	      3.11532874	      6.30211050	      2.03669384
      4.33000000	     -2.19577774	    -11.19124882	     63.97581245	      0.74392762	      0.96534912	     -0.07391639	     34.32429288	      4.97267795	     -1.93911504	    -30.86652412	     10.39887748	    -11.14917573	     20.09990462	     -2.42711220	     -0.27154268	    -60.33341904	      9.47692914	      7.59936437	      3.00233142	      6.41665876	      2.32490491
      4.34000000	     -2.10233345	    -11.24871154	     63.99028134	      0.74740110	      0.96619653	     -0.07728471	     33.90188922	      5.22924655	     -1.87352015	    -30.61554159	     10.50613783	    -11.42646070	     20.89937380	     -2.92161641	     -0.74341909	    -60.41493082	     10.65675150	      6.23089731	      2.88849282	      6.48624890	      2.63661215
      4.35000000	     -2.05163092	    -11.28533244	     63.97329633	      0.75072624	      0.96703088	     -0.08059978	     33.48974965	      5.43790497	     -1.78091597	    -30.37144912	     10.63500981	    -11.64311801	     21.63018914	     -3.30051781	     -1.15829092	    -60.26984840	     11.79217121	      5.12225782	      2.78225868	      6.51276260	      2.95864632
      4.36000000	     -2.03376339	    -11.30745325	     63.93479206	      0.75389602	      0.96784133	     -0.08386489	     33.09263709	      5.60362479	     -1.67708389	    -30.13947337	     10.77962280	    -11.80014794	     22.29853701	     -3.57530697	     -1.50812926	    -59.91492681	     12.86492388	      4.28240999	      2.68578609	      6.50932373	      3.28199658
